<svg width="15" height="15" viewBox="0 0 15 15" fill="none" xmlns="http://www.w3.org/2000/svg">
<path d="M6.05436 0.82848C6.36705 -0.276181 7.9328 -0.276178 8.24549 0.828483L9.22513 4.28927C9.33281 4.6697 9.63014 4.96703 10.0106 5.07472L13.4714 6.05436C14.576 6.36705 14.576 7.9328 13.4714 8.24549L10.0106 9.22513C9.63014 9.33281 9.33281 9.63014 9.22513 10.0106L8.24549 13.4714C7.9328 14.576 6.36705 14.576 6.05436 13.4714L5.07472 10.0106C4.96703 9.63014 4.6697 9.33281 4.28927 9.22513L0.82848 8.24549C-0.276181 7.9328 -0.276178 6.36705 0.828483 6.05436L4.28927 5.07472C4.6697 4.96703 4.96703 4.6697 5.07472 4.28927L6.05436 0.82848Z" fill="#B9FD50"/>
</svg>
